Coordinates
version=1
nRows=11
nColumns=36
inDegrees=yes

Units are S.I. units (second, meters, Newtons, ...)
If the header above contains a line with 'inDegrees', this indicates whether rotational values are in degrees (yes) or radians (no).

endheader
time	pelvis_tilt	pelvis_list	pelvis_rotation	pelvis_tx	pelvis_ty	pelvis_tz	hip_flexion_r	hip_adduction_r	hip_rotation_r	knee_angle_r	knee_angle_r_beta	ankle_angle_r	subtalar_angle_r	mtp_angle_r	hip_flexion_l	hip_adduction_l	hip_rotation_l	knee_angle_l	knee_angle_l_beta	ankle_angle_l	subtalar_angle_l	mtp_angle_l	lumbar_extension	lumbar_bending	lumbar_rotation	arm_flex_r	arm_add_r	arm_rot_r	elbow_flex_r	pro_sup_r	arm_flex_l	arm_add_l	arm_rot_l	elbow_flex_l	pro_sup_l
      5.27083330	     -0.75876206	     -1.06865867	     -1.49472307	      0.46325566	      1.03900118	     -0.25563282	      0.84049294	     -2.00687902	     -1.65222885	      0.88184506	      0.01539110	      4.42372804	     -7.01631519	     -7.49999987	     -1.08819168	     -4.03044102	     -4.06162293	      0.47185074	      0.00823535	      4.38121342	     -5.07636372	     -7.49999987	     -9.65299551	      1.40638571	      0.96359161	      2.96158281	     -5.88425440	     -0.20085685	     34.38728944	     70.27379154	      4.85839879	     -8.52709771	     15.08150554	     28.46889085	     68.78603485
      5.27500000	     -0.76712968	     -1.07737921	     -1.47477266	      0.46335411	      1.03932101	     -0.25608904	      0.78584709	     -2.07037776	     -1.95604622	      0.93198244	      0.01626616	      4.39518636	     -6.93411449	     -7.49999987	     -1.12660537	     -4.00071876	     -4.20035750	      0.45086976	      0.00786916	      4.45483859	     -4.93171011	     -7.49999987	     -9.57605770	      1.47360420	      1.04131199	      2.76063322	     -5.87244454	     -0.07780220	     34.46873588	     70.23470680	      4.96152248	     -8.33451531	     15.65436421	     28.51225455	     68.99912096
      5.27916670	     -0.77296567	     -1.07328110	     -1.46724759	      0.46317682	      1.04197703	     -0.25565621	      0.74794687	     -2.15245476	     -2.02174748	      0.93712769	      0.01635596	      4.38665795	     -6.95209074	     -7.49999987	     -1.14549409	     -3.94897937	     -4.22895821	      0.44508459	      0.00776819	      4.47294368	     -4.94389155	     -7.49999987	     -9.50513495	      1.55390984	      1.02010121	      2.74614427	     -5.72968284	     -0.04269761	     34.48105557	     70.24272073	      5.00812898	     -8.18343681	     15.68209925	     28.55897710	     69.00903416
      5.28333330	     -0.79011285	     -1.05237201	     -1.40673557	      0.46327441	      1.04207130	     -0.25626622	      0.70331021	     -2.23660222	     -2.43707388	      0.92423810	      0.01613100	      4.46971417	     -6.57107747	     -7.49999987	     -1.16512984	     -3.87565712	     -4.28700045	      0.41394254	      0.00722466	      4.63817777	     -4.50768002	     -7.49999987	     -9.38751237	      1.60959352	      0.92058415	      2.71001695	     -5.71218247	      0.04603904	     34.66854416	     69.75937111	      4.86939537	     -7.97438388	     15.81465607	     28.76484848	     68.63153739
      5.28750000	     -0.76562719	     -1.07091738	     -1.36787907	      0.46320431	      1.03868903	     -0.25554979	      0.65783075	     -2.24467564	     -2.76110023	      0.92672175	      0.01617435	      4.66341281	     -6.09559734	     -7.49999987	     -1.22757641	     -3.85888269	     -4.26252757	      0.40109275	      0.00700039	      4.74482725	     -4.51594025	     -7.49999987	     -9.34536924	      1.68316073	      0.85088161	      2.68443841	     -5.69960274	      0.21497847	     34.92922629	     69.37004262	      4.81363679	     -7.82625722	     16.04070649	     29.00666486	     68.33784804
      5.29166670	     -0.88282617	     -1.07472293	     -1.38091748	      0.46323331	      1.03884448	     -0.25601068	      0.78450945	     -2.26417338	     -2.64602298	      0.91672442	      0.01599986	      4.54832819	     -6.32521847	     -7.49999987	     -1.12083670	     -3.84428804	     -4.25530947	      0.38797209	      0.00677139	      4.83749674	     -4.40170242	     -7.49999987	     -9.14047699	      1.75891935	      0.87269482	      2.67354495	     -5.63493091	      0.51355568	     34.93602865	     69.27591984	      4.80295578	     -7.66698886	     16.33519390	     28.84155474	     68.28696468
      5.29583330	     -0.93334605	     -1.07780004	     -1.42072761	      0.46331876	      1.03856065	     -0.25541359	      0.84901251	     -2.27986433	     -2.66043608	      0.90472553	      0.01579044	      4.60532927	     -6.22775078	     -7.49999987	     -1.07783716	     -3.82321375	     -4.07892309	      0.37276958	      0.00650606	      4.79314465	     -4.72783750	     -7.49999987	     -9.10866842	      1.83476281	      0.89127165	      2.67562348	     -5.65271069	      0.89742412	     35.26868525	     68.69470582	      4.70672917	     -7.58504475	     16.51252169	     29.08063472	     67.76270429
      5.30000000	     -1.58027262	     -1.04506255	     -1.47251910	      0.46387447	      1.03800988	     -0.25593458	      1.57060754	     -2.32271372	     -3.13880215	      0.96778631	      0.01689106	      4.86262082	     -5.28352990	     -7.49999987	     -0.41401440	     -3.77494496	     -4.19657575	      0.36245607	      0.00632605	      4.82421713	     -4.37580726	     -7.49999987	     -8.22251760	      1.92030044	      0.87568297	      2.32797487	     -5.62397212	      1.10466291	     35.81937806	     68.22484131	      4.22094421	     -7.61917847	     16.61997959	     29.71270497	     67.33605454
      5.30416670	     -1.01736986	     -1.04093791	     -1.48244452	      0.46736957	      1.03864213	     -0.26023255	      0.90382282	     -2.39586217	     -2.64325142	      0.90837102	      0.01585407	      4.52188820	     -6.41080671	     -7.49999987	     -1.06170347	     -3.70739485	     -3.93014002	      0.35744684	      0.00623862	      4.90293083	     -4.75666426	     -7.49999987	     -8.89378249	      1.96335205	      0.87669040	      2.81537820	     -5.69084885	      2.07652260	     34.95042776	     68.86725390	      4.75887945	     -7.41595463	     17.46300027	     28.55738281	     67.95231238
      5.30833330	     -0.95227004	     -1.02400217	     -1.53985526	      0.46729053	      1.03912153	     -0.26057337	      0.79614747	     -2.47834212	     -2.81794130	      0.91944206	      0.01604729	      4.65035610	     -6.02944034	     -7.49999987	     -1.19701022	     -3.63072511	     -3.90559241	      0.34246197	      0.00597709	      5.03173377	     -4.66251961	     -7.49999987	     -8.97729419	      2.05661621	      0.86932474	      2.87290892	     -5.69891676	      2.14864951	     35.05196672	     68.58333887	      4.64393038	     -7.27153110	     17.45884002	     28.66061555	     67.67797330
      5.31250000	     -0.92493565	     -1.02900070	     -1.56435816	      0.46731427	      1.03891070	     -0.25989824	      0.71147021	     -2.52520298	     -2.98470515	      0.92315149	      0.01611203	      4.65651151	     -5.83845952	     -7.49999987	     -1.30181029	     -3.59841360	     -3.90026211	      0.33519794	      0.00585031	      5.11441318	     -4.64574521	     -7.49999987	     -8.90457753	      2.14868896	      0.83147676	      2.85333935	     -5.64508363	      2.22998833	     34.98259175	     68.30922754	      4.54930510	     -7.12546090	     17.53368430	     28.46917016	     67.41360677
